<svg width="1000" height="1000" viewBox="0 0 1000 1000" fill="none" xmlns="http://www.w3.org/2000/svg">
<rect width="1000" height="1000" fill="#1C1A1C"/>
<path d="M362.782 534.81C362.782 575.693 361.776 604.68 359.766 621.771C357.923 638.694 351.891 654.193 341.671 668.268C331.618 682.343 317.964 693.15 300.707 700.69C283.45 708.23 263.344 712 240.391 712C218.61 712 199.007 708.481 181.583 701.444C164.326 694.239 150.42 683.516 139.864 669.273C129.309 655.031 123.026 639.532 121.016 622.777C119.005 606.021 118 576.699 118 534.81V465.19C118 424.307 118.921 395.403 120.764 378.48C122.775 361.389 128.807 345.807 138.859 331.732C149.079 317.657 162.818 306.85 180.075 299.31C197.332 291.77 217.437 288 240.391 288C262.171 288 281.69 291.602 298.947 298.807C316.372 305.845 330.362 316.484 340.917 330.727C351.472 344.969 357.755 360.468 359.766 377.223C361.776 393.979 362.782 423.301 362.782 465.19V534.81ZM256.978 401.1C256.978 382.166 255.889 370.102 253.711 364.908C251.7 359.546 247.428 356.865 240.893 356.865C235.364 356.865 231.092 359.044 228.076 363.4C225.228 367.589 223.804 380.156 223.804 401.1V591.108C223.804 614.734 224.725 629.311 226.568 634.841C228.579 640.37 233.103 643.135 240.139 643.135C247.344 643.135 251.951 639.951 253.962 633.584C255.972 627.217 256.978 612.053 256.978 588.092V401.1Z" fill="white"/>
<path d="M626.663 419.699H528.399V389.539C528.399 375.464 527.142 366.5 524.629 362.646C522.116 358.792 517.927 356.865 512.063 356.865C505.696 356.865 500.838 359.463 497.487 364.657C494.303 369.851 492.712 377.726 492.712 388.282C492.712 401.854 494.555 412.075 498.241 418.945C501.759 425.815 511.728 434.109 528.147 443.827C575.227 471.809 604.882 494.764 617.113 512.692C629.344 530.621 635.459 559.524 635.459 599.402C635.459 628.39 632.025 649.753 625.155 663.493C618.453 677.232 605.385 688.794 585.95 698.177C566.515 707.392 543.896 712 518.095 712C489.78 712 465.57 706.638 445.464 695.915C425.527 685.191 412.458 671.535 406.259 654.947C400.06 638.359 396.961 614.818 396.961 584.322V557.681H495.225V607.194C495.225 622.441 496.565 632.243 499.246 636.6C502.094 640.956 507.037 643.135 514.074 643.135C521.111 643.135 526.304 640.37 529.655 634.841C533.174 629.311 534.933 621.101 534.933 610.21C534.933 586.249 531.666 570.583 525.132 563.21C518.43 555.838 501.927 543.523 475.622 526.264C449.318 508.839 431.893 496.188 423.349 488.313C414.804 480.438 407.683 469.547 401.987 455.64C396.458 441.732 393.693 423.972 393.693 402.357C393.693 371.191 397.631 348.404 405.505 333.994C413.547 319.584 426.448 308.358 444.208 300.315C461.968 292.105 483.413 288 508.545 288C536.022 288 559.394 292.44 578.662 301.321C598.097 310.201 610.914 321.427 617.113 334.999C623.48 348.404 626.663 371.275 626.663 403.614V419.699Z" fill="white"/>
<path d="M882 296.545V377.977H819.171V703.455H713.367V377.977H650.789V296.545H882Z" fill="white"/>
</svg>
